<mxfile host="Electron" modified="2024-06-25T16:02:29.770Z" agent="Mozilla/5.0 (Windows NT 10.0; Win64; x64) AppleWebKit/537.36 (KHTML, like Gecko) draw.io/24.6.1 Chrome/124.0.6367.207 Electron/30.0.6 Safari/537.36" etag="3zceG4-rG9SRr6aO8cAP" version="24.6.1" type="device">
  <diagram name="Page-1" id="uzjMX1w6ukuhE0hcgI-c">
    <mxGraphModel dx="5160" dy="2563" grid="0" gridSize="10" guides="0" tooltips="1" connect="1" arrows="1" fold="1" page="0" pageScale="1" pageWidth="1169" pageHeight="827" math="0" shadow="0">
      <root>
        <mxCell id="0" />
        <mxCell id="1" parent="0" />
        <mxCell id="EVUnO8zjn1eMPmrUqQvd-53" style="edgeStyle=orthogonalEdgeStyle;rounded=0;orthogonalLoop=1;jettySize=auto;html=1;exitX=0;exitY=0.5;exitDx=0;exitDy=0;entryX=0.5;entryY=1;entryDx=0;entryDy=0;strokeWidth=3;curved=1;" edge="1" parent="1" source="EVUnO8zjn1eMPmrUqQvd-1" target="EVUnO8zjn1eMPmrUqQvd-15">
          <mxGeometry relative="1" as="geometry">
            <Array as="points">
              <mxPoint x="-1070" y="1185" />
            </Array>
          </mxGeometry>
        </mxCell>
        <mxCell id="EVUnO8zjn1eMPmrUqQvd-78" value="&lt;font style=&quot;font-size: 30px;&quot;&gt;Sync&lt;/font&gt;" style="edgeLabel;html=1;align=center;verticalAlign=middle;resizable=0;points=[];" vertex="1" connectable="0" parent="EVUnO8zjn1eMPmrUqQvd-53">
          <mxGeometry x="-0.2016" y="-46" relative="1" as="geometry">
            <mxPoint as="offset" />
          </mxGeometry>
        </mxCell>
        <mxCell id="EVUnO8zjn1eMPmrUqQvd-75" style="edgeStyle=orthogonalEdgeStyle;rounded=0;orthogonalLoop=1;jettySize=auto;html=1;exitX=1;exitY=0.75;exitDx=0;exitDy=0;entryX=0.75;entryY=1;entryDx=0;entryDy=0;strokeWidth=3;curved=1;" edge="1" parent="1" source="EVUnO8zjn1eMPmrUqQvd-1" target="EVUnO8zjn1eMPmrUqQvd-7">
          <mxGeometry relative="1" as="geometry" />
        </mxCell>
        <mxCell id="EVUnO8zjn1eMPmrUqQvd-76" value="&lt;font style=&quot;font-size: 30px;&quot;&gt;Sync&lt;/font&gt;" style="edgeLabel;html=1;align=center;verticalAlign=middle;resizable=0;points=[];" vertex="1" connectable="0" parent="EVUnO8zjn1eMPmrUqQvd-75">
          <mxGeometry x="-0.1656" y="8" relative="1" as="geometry">
            <mxPoint as="offset" />
          </mxGeometry>
        </mxCell>
        <mxCell id="EVUnO8zjn1eMPmrUqQvd-1" value="" style="rounded=1;whiteSpace=wrap;html=1;fillColor=#589151;" vertex="1" parent="1">
          <mxGeometry x="-410" y="1070" width="550" height="230" as="geometry" />
        </mxCell>
        <mxCell id="EVUnO8zjn1eMPmrUqQvd-50" style="edgeStyle=orthogonalEdgeStyle;rounded=0;orthogonalLoop=1;jettySize=auto;html=1;exitX=1;exitY=0.75;exitDx=0;exitDy=0;entryX=0;entryY=0.5;entryDx=0;entryDy=0;strokeWidth=3;targetPerimeterSpacing=0;curved=1;" edge="1" parent="1" source="EVUnO8zjn1eMPmrUqQvd-2" target="EVUnO8zjn1eMPmrUqQvd-38">
          <mxGeometry relative="1" as="geometry" />
        </mxCell>
        <mxCell id="EVUnO8zjn1eMPmrUqQvd-72" value="&lt;font style=&quot;font-size: 30px;&quot;&gt;Async&lt;/font&gt;" style="edgeLabel;html=1;align=center;verticalAlign=middle;resizable=0;points=[];" vertex="1" connectable="0" parent="EVUnO8zjn1eMPmrUqQvd-50">
          <mxGeometry x="-0.0275" y="-5" relative="1" as="geometry">
            <mxPoint as="offset" />
          </mxGeometry>
        </mxCell>
        <mxCell id="EVUnO8zjn1eMPmrUqQvd-63" style="edgeStyle=orthogonalEdgeStyle;rounded=0;orthogonalLoop=1;jettySize=auto;html=1;exitX=0.75;exitY=1;exitDx=0;exitDy=0;strokeWidth=3;curved=1;" edge="1" parent="1" source="EVUnO8zjn1eMPmrUqQvd-27" target="EVUnO8zjn1eMPmrUqQvd-2">
          <mxGeometry relative="1" as="geometry">
            <mxPoint x="-440" y="420" as="targetPoint" />
          </mxGeometry>
        </mxCell>
        <mxCell id="EVUnO8zjn1eMPmrUqQvd-70" value="&lt;font style=&quot;font-size: 30px;&quot;&gt;Async&lt;/font&gt;" style="edgeLabel;html=1;align=center;verticalAlign=middle;resizable=0;points=[];" vertex="1" connectable="0" parent="EVUnO8zjn1eMPmrUqQvd-63">
          <mxGeometry x="0.0673" y="-12" relative="1" as="geometry">
            <mxPoint as="offset" />
          </mxGeometry>
        </mxCell>
        <mxCell id="EVUnO8zjn1eMPmrUqQvd-2" value="" style="rounded=1;whiteSpace=wrap;html=1;fillColor=#5D54A8;" vertex="1" parent="1">
          <mxGeometry x="-730" y="560" width="350" height="240" as="geometry" />
        </mxCell>
        <mxCell id="EVUnO8zjn1eMPmrUqQvd-3" value="" style="rounded=1;whiteSpace=wrap;html=1;fillColor=#A3A3A3;" vertex="1" parent="1">
          <mxGeometry x="370" y="-518" width="357.5" height="240" as="geometry" />
        </mxCell>
        <mxCell id="EVUnO8zjn1eMPmrUqQvd-4" value="&lt;font style=&quot;font-size: 18px;&quot;&gt;Изменение тестов&lt;/font&gt;" style="rounded=1;whiteSpace=wrap;html=1;" vertex="1" parent="1">
          <mxGeometry x="-355" y="1140" width="200" height="110" as="geometry" />
        </mxCell>
        <mxCell id="EVUnO8zjn1eMPmrUqQvd-5" value="&lt;font style=&quot;font-size: 18px;&quot;&gt;Изменение матчинга&lt;/font&gt;" style="rounded=1;whiteSpace=wrap;html=1;" vertex="1" parent="1">
          <mxGeometry x="-105" y="1140" width="200" height="110" as="geometry" />
        </mxCell>
        <mxCell id="EVUnO8zjn1eMPmrUqQvd-6" value="&lt;b&gt;&lt;font color=&quot;#ffffff&quot; style=&quot;font-size: 25px;&quot;&gt;rnd-core-service&lt;/font&gt;&lt;/b&gt;" style="text;html=1;align=center;verticalAlign=middle;whiteSpace=wrap;rounded=0;" vertex="1" parent="1">
          <mxGeometry x="-250" y="1090" width="220" height="30" as="geometry" />
        </mxCell>
        <mxCell id="EVUnO8zjn1eMPmrUqQvd-7" value="" style="rounded=1;whiteSpace=wrap;html=1;fillColor=#5D54A8;" vertex="1" parent="1">
          <mxGeometry x="355" y="860" width="360" height="240" as="geometry" />
        </mxCell>
        <mxCell id="EVUnO8zjn1eMPmrUqQvd-8" value="&lt;font style=&quot;font-size: 18px;&quot;&gt;Проведение тестирования&lt;/font&gt;" style="rounded=1;whiteSpace=wrap;html=1;" vertex="1" parent="1">
          <mxGeometry x="435" y="950" width="200" height="110" as="geometry" />
        </mxCell>
        <mxCell id="EVUnO8zjn1eMPmrUqQvd-9" value="&lt;font color=&quot;#ffffff&quot;&gt;&lt;span style=&quot;font-size: 25px;&quot;&gt;&lt;b&gt;testing-service&lt;/b&gt;&lt;/span&gt;&lt;/font&gt;" style="text;html=1;align=center;verticalAlign=middle;whiteSpace=wrap;rounded=0;" vertex="1" parent="1">
          <mxGeometry x="385" y="881" width="300" height="30" as="geometry" />
        </mxCell>
        <mxCell id="EVUnO8zjn1eMPmrUqQvd-11" value="&lt;font color=&quot;#ffffff&quot;&gt;&lt;span style=&quot;font-size: 25px;&quot;&gt;&lt;b&gt;audit-service&lt;/b&gt;&lt;/span&gt;&lt;/font&gt;" style="text;html=1;align=center;verticalAlign=middle;whiteSpace=wrap;rounded=0;" vertex="1" parent="1">
          <mxGeometry x="-690" y="581" width="270" height="30" as="geometry" />
        </mxCell>
        <mxCell id="EVUnO8zjn1eMPmrUqQvd-12" value="&lt;div&gt;&lt;font style=&quot;font-size: 18px;&quot;&gt;Аудит&lt;/font&gt;&lt;/div&gt;&lt;font style=&quot;font-size: 18px;&quot;&gt;(Сбор информации о задачах и результатах)&lt;/font&gt;" style="rounded=1;whiteSpace=wrap;html=1;" vertex="1" parent="1">
          <mxGeometry x="-650" y="655" width="200" height="110" as="geometry" />
        </mxCell>
        <mxCell id="EVUnO8zjn1eMPmrUqQvd-13" value="&lt;font color=&quot;#ffffff&quot;&gt;&lt;span style=&quot;font-size: 25px;&quot;&gt;&lt;b&gt;hr-service&lt;/b&gt;&lt;/span&gt;&lt;/font&gt;" style="text;html=1;align=center;verticalAlign=middle;whiteSpace=wrap;rounded=0;" vertex="1" parent="1">
          <mxGeometry x="410" y="-497" width="277.5" height="30" as="geometry" />
        </mxCell>
        <mxCell id="EVUnO8zjn1eMPmrUqQvd-14" value="&lt;font style=&quot;font-size: 18px;&quot;&gt;Учет кадров&lt;/font&gt;&lt;div&gt;&lt;font style=&quot;font-size: 18px;&quot;&gt;(воркеры, менеджеры, кладовщики и тд, кроме клиентов)&lt;/font&gt;&lt;/div&gt;" style="rounded=1;whiteSpace=wrap;html=1;" vertex="1" parent="1">
          <mxGeometry x="450" y="-428" width="200" height="110" as="geometry" />
        </mxCell>
        <mxCell id="EVUnO8zjn1eMPmrUqQvd-15" value="" style="rounded=1;whiteSpace=wrap;html=1;fillColor=#589151;" vertex="1" parent="1">
          <mxGeometry x="-1250" y="581" width="360" height="240" as="geometry" />
        </mxCell>
        <mxCell id="EVUnO8zjn1eMPmrUqQvd-16" value="&lt;font color=&quot;#ffffff&quot;&gt;&lt;span style=&quot;font-size: 25px;&quot;&gt;&lt;b&gt;order-matching-service&lt;/b&gt;&lt;/span&gt;&lt;/font&gt;" style="text;html=1;align=center;verticalAlign=middle;whiteSpace=wrap;rounded=0;" vertex="1" parent="1">
          <mxGeometry x="-1237.5" y="602" width="300" height="30" as="geometry" />
        </mxCell>
        <mxCell id="EVUnO8zjn1eMPmrUqQvd-17" value="&lt;font style=&quot;font-size: 18px;&quot;&gt;Матчинг клиентов и воркеров&lt;/font&gt;" style="rounded=1;whiteSpace=wrap;html=1;" vertex="1" parent="1">
          <mxGeometry x="-1170" y="671" width="200" height="110" as="geometry" />
        </mxCell>
        <mxCell id="EVUnO8zjn1eMPmrUqQvd-44" style="edgeStyle=orthogonalEdgeStyle;rounded=0;orthogonalLoop=1;jettySize=auto;html=1;exitX=0.25;exitY=1;exitDx=0;exitDy=0;entryX=0.75;entryY=0;entryDx=0;entryDy=0;strokeWidth=3;curved=1;" edge="1" parent="1" source="EVUnO8zjn1eMPmrUqQvd-18" target="EVUnO8zjn1eMPmrUqQvd-27">
          <mxGeometry relative="1" as="geometry" />
        </mxCell>
        <mxCell id="EVUnO8zjn1eMPmrUqQvd-65" value="&lt;font style=&quot;font-size: 30px;&quot;&gt;Sync&lt;/font&gt;" style="edgeLabel;html=1;align=center;verticalAlign=middle;resizable=0;points=[];" vertex="1" connectable="0" parent="EVUnO8zjn1eMPmrUqQvd-44">
          <mxGeometry x="-0.0662" y="7" relative="1" as="geometry">
            <mxPoint x="-1" as="offset" />
          </mxGeometry>
        </mxCell>
        <mxCell id="EVUnO8zjn1eMPmrUqQvd-18" value="" style="rounded=1;whiteSpace=wrap;html=1;fillColor=#5D54A8;" vertex="1" parent="1">
          <mxGeometry x="-588.75" y="-500" width="360" height="240" as="geometry" />
        </mxCell>
        <mxCell id="EVUnO8zjn1eMPmrUqQvd-19" value="&lt;font color=&quot;#ffffff&quot;&gt;&lt;span style=&quot;font-size: 25px;&quot;&gt;&lt;b&gt;tote-service&lt;/b&gt;&lt;/span&gt;&lt;/font&gt;" style="text;html=1;align=center;verticalAlign=middle;whiteSpace=wrap;rounded=0;" vertex="1" parent="1">
          <mxGeometry x="-548.75" y="-479" width="270" height="30" as="geometry" />
        </mxCell>
        <mxCell id="EVUnO8zjn1eMPmrUqQvd-20" value="&lt;font style=&quot;font-size: 18px;&quot;&gt;Тотализатор&lt;/font&gt;" style="rounded=1;whiteSpace=wrap;html=1;" vertex="1" parent="1">
          <mxGeometry x="-507.5" y="-410" width="200" height="110" as="geometry" />
        </mxCell>
        <mxCell id="EVUnO8zjn1eMPmrUqQvd-21" value="" style="rounded=1;whiteSpace=wrap;html=1;fillColor=#A3A3A3;" vertex="1" parent="1">
          <mxGeometry x="-1310" y="-320" width="360" height="240" as="geometry" />
        </mxCell>
        <mxCell id="EVUnO8zjn1eMPmrUqQvd-22" value="&lt;font color=&quot;#ffffff&quot;&gt;&lt;span style=&quot;font-size: 25px;&quot;&gt;&lt;b&gt;payments-service&lt;/b&gt;&lt;/span&gt;&lt;/font&gt;" style="text;html=1;align=center;verticalAlign=middle;whiteSpace=wrap;rounded=0;" vertex="1" parent="1">
          <mxGeometry x="-1270" y="-299" width="280" height="30" as="geometry" />
        </mxCell>
        <mxCell id="EVUnO8zjn1eMPmrUqQvd-23" value="&lt;font style=&quot;font-size: 18px;&quot;&gt;Бухгалтерия&lt;/font&gt;" style="rounded=1;whiteSpace=wrap;html=1;" vertex="1" parent="1">
          <mxGeometry x="-1230" y="-230" width="200" height="110" as="geometry" />
        </mxCell>
        <mxCell id="EVUnO8zjn1eMPmrUqQvd-24" value="" style="rounded=1;whiteSpace=wrap;html=1;fillColor=#5D54A8;" vertex="1" parent="1">
          <mxGeometry x="-60" y="-214" width="360" height="240" as="geometry" />
        </mxCell>
        <mxCell id="EVUnO8zjn1eMPmrUqQvd-25" value="&lt;font color=&quot;#ffffff&quot;&gt;&lt;span style=&quot;font-size: 25px;&quot;&gt;&lt;b&gt;wh-consumables-service&lt;/b&gt;&lt;/span&gt;&lt;/font&gt;" style="text;html=1;align=center;verticalAlign=middle;whiteSpace=wrap;rounded=0;" vertex="1" parent="1">
          <mxGeometry x="-35" y="-193" width="305" height="30" as="geometry" />
        </mxCell>
        <mxCell id="EVUnO8zjn1eMPmrUqQvd-26" value="&lt;span style=&quot;font-size: 18px;&quot;&gt;Расходники&lt;/span&gt;" style="rounded=1;whiteSpace=wrap;html=1;" vertex="1" parent="1">
          <mxGeometry x="15" y="-124" width="200" height="110" as="geometry" />
        </mxCell>
        <mxCell id="EVUnO8zjn1eMPmrUqQvd-46" style="edgeStyle=orthogonalEdgeStyle;rounded=0;orthogonalLoop=1;jettySize=auto;html=1;exitX=0.25;exitY=1;exitDx=0;exitDy=0;entryX=0.5;entryY=0;entryDx=0;entryDy=0;strokeWidth=3;curved=1;" edge="1" parent="1" source="EVUnO8zjn1eMPmrUqQvd-27" target="EVUnO8zjn1eMPmrUqQvd-15">
          <mxGeometry relative="1" as="geometry" />
        </mxCell>
        <mxCell id="EVUnO8zjn1eMPmrUqQvd-71" value="&lt;font style=&quot;font-size: 30px;&quot;&gt;Sync&lt;/font&gt;" style="edgeLabel;html=1;align=center;verticalAlign=middle;resizable=0;points=[];" vertex="1" connectable="0" parent="EVUnO8zjn1eMPmrUqQvd-46">
          <mxGeometry x="-0.2413" y="-18" relative="1" as="geometry">
            <mxPoint as="offset" />
          </mxGeometry>
        </mxCell>
        <mxCell id="EVUnO8zjn1eMPmrUqQvd-47" style="edgeStyle=orthogonalEdgeStyle;rounded=0;orthogonalLoop=1;jettySize=auto;html=1;exitX=1;exitY=0.25;exitDx=0;exitDy=0;entryX=0;entryY=0.75;entryDx=0;entryDy=0;strokeWidth=3;elbow=vertical;curved=1;" edge="1" parent="1" source="EVUnO8zjn1eMPmrUqQvd-27" target="EVUnO8zjn1eMPmrUqQvd-24">
          <mxGeometry relative="1" as="geometry" />
        </mxCell>
        <mxCell id="EVUnO8zjn1eMPmrUqQvd-67" value="&lt;font style=&quot;font-size: 30px;&quot;&gt;Sync&lt;/font&gt;" style="edgeLabel;html=1;align=center;verticalAlign=middle;resizable=0;points=[];" vertex="1" connectable="0" parent="EVUnO8zjn1eMPmrUqQvd-47">
          <mxGeometry x="-0.04" y="2" relative="1" as="geometry">
            <mxPoint as="offset" />
          </mxGeometry>
        </mxCell>
        <mxCell id="EVUnO8zjn1eMPmrUqQvd-48" style="edgeStyle=orthogonalEdgeStyle;rounded=0;orthogonalLoop=1;jettySize=auto;html=1;exitX=1;exitY=0.25;exitDx=0;exitDy=0;entryX=0;entryY=0.5;entryDx=0;entryDy=0;strokeWidth=3;curved=1;" edge="1" parent="1" source="EVUnO8zjn1eMPmrUqQvd-27" target="EVUnO8zjn1eMPmrUqQvd-31">
          <mxGeometry relative="1" as="geometry" />
        </mxCell>
        <mxCell id="EVUnO8zjn1eMPmrUqQvd-68" value="&lt;font style=&quot;font-size: 30px;&quot;&gt;Sync&lt;/font&gt;" style="edgeLabel;html=1;align=center;verticalAlign=middle;resizable=0;points=[];" vertex="1" connectable="0" parent="EVUnO8zjn1eMPmrUqQvd-48">
          <mxGeometry x="0.0906" y="15" relative="1" as="geometry">
            <mxPoint as="offset" />
          </mxGeometry>
        </mxCell>
        <mxCell id="EVUnO8zjn1eMPmrUqQvd-54" style="edgeStyle=orthogonalEdgeStyle;rounded=0;orthogonalLoop=1;jettySize=auto;html=1;exitX=0;exitY=0.25;exitDx=0;exitDy=0;entryX=0.5;entryY=1;entryDx=0;entryDy=0;strokeWidth=3;curved=1;" edge="1" parent="1" source="EVUnO8zjn1eMPmrUqQvd-27" target="EVUnO8zjn1eMPmrUqQvd-21">
          <mxGeometry relative="1" as="geometry" />
        </mxCell>
        <mxCell id="EVUnO8zjn1eMPmrUqQvd-60" value="&lt;font style=&quot;font-size: 30px;&quot;&gt;Async&lt;/font&gt;" style="edgeLabel;html=1;align=center;verticalAlign=middle;resizable=0;points=[];" vertex="1" connectable="0" parent="EVUnO8zjn1eMPmrUqQvd-54">
          <mxGeometry x="-0.0263" y="-38" relative="1" as="geometry">
            <mxPoint x="-2" as="offset" />
          </mxGeometry>
        </mxCell>
        <mxCell id="EVUnO8zjn1eMPmrUqQvd-27" value="" style="rounded=1;whiteSpace=wrap;html=1;fillColor=#5D54A8;" vertex="1" parent="1">
          <mxGeometry x="-900" y="20" width="360" height="240" as="geometry" />
        </mxCell>
        <mxCell id="EVUnO8zjn1eMPmrUqQvd-28" value="&lt;font style=&quot;font-size: 18px;&quot;&gt;Ведение задач и клиентов&lt;/font&gt;" style="rounded=1;whiteSpace=wrap;html=1;" vertex="1" parent="1">
          <mxGeometry x="-820" y="111" width="200" height="110" as="geometry" />
        </mxCell>
        <mxCell id="EVUnO8zjn1eMPmrUqQvd-29" value="&lt;b&gt;&lt;font color=&quot;#ffffff&quot; style=&quot;font-size: 25px;&quot;&gt;ordering-service&lt;/font&gt;&lt;/b&gt;" style="text;html=1;align=center;verticalAlign=middle;whiteSpace=wrap;rounded=0;" vertex="1" parent="1">
          <mxGeometry x="-855" y="41" width="275" height="30" as="geometry" />
        </mxCell>
        <mxCell id="EVUnO8zjn1eMPmrUqQvd-31" value="" style="rounded=1;whiteSpace=wrap;html=1;fillColor=#5D54A8;" vertex="1" parent="1">
          <mxGeometry x="-60" y="86" width="360" height="240" as="geometry" />
        </mxCell>
        <mxCell id="EVUnO8zjn1eMPmrUqQvd-32" value="&lt;font color=&quot;#ffffff&quot;&gt;&lt;span style=&quot;font-size: 25px;&quot;&gt;&lt;b&gt;wh-cookies-service&lt;/b&gt;&lt;/span&gt;&lt;/font&gt;" style="text;html=1;align=center;verticalAlign=middle;whiteSpace=wrap;rounded=0;" vertex="1" parent="1">
          <mxGeometry x="-30" y="107" width="300" height="30" as="geometry" />
        </mxCell>
        <mxCell id="EVUnO8zjn1eMPmrUqQvd-34" value="&lt;font style=&quot;font-size: 18px;&quot;&gt;Печение&lt;/font&gt;" style="rounded=1;whiteSpace=wrap;html=1;" vertex="1" parent="1">
          <mxGeometry x="20" y="176" width="200" height="110" as="geometry" />
        </mxCell>
        <mxCell id="EVUnO8zjn1eMPmrUqQvd-51" style="edgeStyle=orthogonalEdgeStyle;rounded=0;orthogonalLoop=1;jettySize=auto;html=1;entryX=0.75;entryY=1;entryDx=0;entryDy=0;strokeWidth=3;curved=1;exitX=0.5;exitY=0;exitDx=0;exitDy=0;" edge="1" parent="1" source="EVUnO8zjn1eMPmrUqQvd-1" target="EVUnO8zjn1eMPmrUqQvd-38">
          <mxGeometry relative="1" as="geometry">
            <mxPoint x="110" y="970" as="sourcePoint" />
          </mxGeometry>
        </mxCell>
        <mxCell id="EVUnO8zjn1eMPmrUqQvd-73" value="&lt;font style=&quot;font-size: 30px;&quot;&gt;Sync&lt;/font&gt;" style="edgeLabel;html=1;align=center;verticalAlign=middle;resizable=0;points=[];" vertex="1" connectable="0" parent="EVUnO8zjn1eMPmrUqQvd-51">
          <mxGeometry x="0.0287" y="1" relative="1" as="geometry">
            <mxPoint as="offset" />
          </mxGeometry>
        </mxCell>
        <mxCell id="EVUnO8zjn1eMPmrUqQvd-38" value="" style="rounded=1;whiteSpace=wrap;html=1;fillColor=#589151;" vertex="1" parent="1">
          <mxGeometry x="-185" y="655" width="360" height="240" as="geometry" />
        </mxCell>
        <mxCell id="EVUnO8zjn1eMPmrUqQvd-39" value="&lt;font color=&quot;#ffffff&quot;&gt;&lt;span style=&quot;font-size: 25px;&quot;&gt;&lt;b&gt;rnd-analysis-service&lt;/b&gt;&lt;/span&gt;&lt;/font&gt;" style="text;html=1;align=center;verticalAlign=middle;whiteSpace=wrap;rounded=0;" vertex="1" parent="1">
          <mxGeometry x="-163.75" y="681" width="317.5" height="30" as="geometry" />
        </mxCell>
        <mxCell id="EVUnO8zjn1eMPmrUqQvd-10" value="&lt;font style=&quot;font-size: 18px;&quot;&gt;Анализ аудита&lt;/font&gt;" style="rounded=1;whiteSpace=wrap;html=1;" vertex="1" parent="1">
          <mxGeometry x="-105" y="745" width="200" height="110" as="geometry" />
        </mxCell>
        <mxCell id="EVUnO8zjn1eMPmrUqQvd-79" value="" style="endArrow=classic;html=1;rounded=0;entryX=0.25;entryY=1;entryDx=0;entryDy=0;strokeWidth=3;" edge="1" parent="1" target="EVUnO8zjn1eMPmrUqQvd-3">
          <mxGeometry width="50" height="50" relative="1" as="geometry">
            <mxPoint x="459" y="152" as="sourcePoint" />
            <mxPoint x="-390" y="542" as="targetPoint" />
          </mxGeometry>
        </mxCell>
        <mxCell id="EVUnO8zjn1eMPmrUqQvd-80" value="&lt;font style=&quot;font-size: 30px;&quot;&gt;From services (sync):&lt;/font&gt;&lt;div&gt;&lt;font style=&quot;font-size: 30px;&quot;&gt;- ordering-service&lt;/font&gt;&lt;/div&gt;&lt;div&gt;&lt;font style=&quot;font-size: 30px;&quot;&gt;- tote-service&lt;/font&gt;&lt;/div&gt;&lt;div&gt;&lt;font style=&quot;font-size: 30px;&quot;&gt;- wh-consumables-serivice&lt;/font&gt;&lt;/div&gt;&lt;div&gt;&lt;font style=&quot;font-size: 30px;&quot;&gt;- wh-cookies-service&lt;/font&gt;&lt;/div&gt;&lt;div&gt;&lt;font style=&quot;font-size: 30px;&quot;&gt;- audit-service&lt;/font&gt;&lt;/div&gt;&lt;div&gt;&lt;font style=&quot;font-size: 30px;&quot;&gt;- testing-service&lt;/font&gt;&lt;/div&gt;&lt;div&gt;&lt;font style=&quot;font-size: 30px;&quot;&gt;- rnd-analysis-service&lt;/font&gt;&lt;/div&gt;&lt;div&gt;&lt;font style=&quot;font-size: 30px;&quot;&gt;- rnd-core-service&lt;/font&gt;&lt;/div&gt;" style="text;html=1;align=left;verticalAlign=middle;resizable=0;points=[];autosize=1;strokeColor=none;fillColor=none;" vertex="1" parent="1">
          <mxGeometry x="460" y="-176" width="373" height="336" as="geometry" />
        </mxCell>
      </root>
    </mxGraphModel>
  </diagram>
</mxfile>
